<svg width="46" height="44" viewBox="0 0 46 44" fill="none" xmlns="http://www.w3.org/2000/svg">
<path d="M45.1236 1.13636C45.1236 0.56489 44.656 0.0973206 44.0845 0.0973206L35.5124 0.136287L22.6023 15.5271L9.70519 0.149276L1.1201 0.110309C0.548624 0.110309 0.0810547 0.564891 0.0810547 1.14935C0.0810547 1.39613 0.17197 1.62991 0.327827 1.82473L17.2253 21.9562L0.327827 42.0747C0.170884 42.265 0.0838034 42.5033 0.0810547 42.75C0.0810547 43.3215 0.548624 43.7891 1.1201 43.7891L9.70519 43.7501L22.6023 28.3593L35.4994 43.7371L44.0715 43.7761C44.643 43.7761 45.1106 43.3215 45.1106 42.737C45.1106 42.4903 45.0197 42.2565 44.8638 42.0617L27.9924 21.9432L44.8898 1.81174C45.0456 1.62991 45.1236 1.38314 45.1236 1.13636Z" fill="white"/>
</svg>
